<mxfile host="Electron" modified="2024-03-04T22:06:56.323Z" agent="Mozilla/5.0 (X11; Linux x86_64) AppleWebKit/537.36 (KHTML, like Gecko) draw.io/23.1.5 Chrome/120.0.6099.109 Electron/28.1.0 Safari/537.36" etag="Ocw1mBEFr3yhTZA9nDqB" version="23.1.5" type="device">
  <diagram name="Page-1" id="d09H3-JXCVfidDn7u6ot">
    <mxGraphModel dx="1394" dy="879" grid="1" gridSize="10" guides="1" tooltips="1" connect="1" arrows="1" fold="1" page="1" pageScale="1" pageWidth="827" pageHeight="1169" math="0" shadow="0">
      <root>
        <mxCell id="0" />
        <mxCell id="1" parent="0" />
        <mxCell id="RDpyPI0KjrjBRPkJG_iu-1" value="alt" style="shape=umlFrame;whiteSpace=wrap;html=1;fillColor=#f5f5f5;fontColor=#333333;strokeColor=#666666;" parent="1" vertex="1">
          <mxGeometry x="200" y="240" width="620" height="330" as="geometry" />
        </mxCell>
        <mxCell id="RDpyPI0KjrjBRPkJG_iu-2" value=":Customer" style="shape=umlLifeline;participant=umlActor;perimeter=lifelinePerimeter;html=1;container=1;collapsible=0;recursiveResize=0;verticalAlign=top;spacingTop=36;outlineConnect=0;size=40;fillColor=#f8cecc;strokeColor=#b85450;" parent="1" vertex="1">
          <mxGeometry x="130" y="80" width="20" height="530" as="geometry" />
        </mxCell>
        <mxCell id="RDpyPI0KjrjBRPkJG_iu-3" value="" style="html=1;points=[];perimeter=orthogonalPerimeter;fillColor=#f8cecc;strokeColor=#b85450;" parent="RDpyPI0KjrjBRPkJG_iu-2" vertex="1">
          <mxGeometry x="5" y="70" width="10" height="420" as="geometry" />
        </mxCell>
        <mxCell id="RDpyPI0KjrjBRPkJG_iu-4" value=":SearchForm" style="shape=umlLifeline;perimeter=lifelinePerimeter;whiteSpace=wrap;html=1;container=1;collapsible=0;recursiveResize=0;outlineConnect=0;fillColor=#ffe6cc;strokeColor=#d79b00;" parent="1" vertex="1">
          <mxGeometry x="270" y="90" width="100" height="520" as="geometry" />
        </mxCell>
        <mxCell id="RDpyPI0KjrjBRPkJG_iu-5" value="" style="html=1;points=[];perimeter=orthogonalPerimeter;fillColor=#ffe6cc;strokeColor=#d79b00;" parent="RDpyPI0KjrjBRPkJG_iu-4" vertex="1">
          <mxGeometry x="45" y="80" width="10" height="380" as="geometry" />
        </mxCell>
        <mxCell id="RDpyPI0KjrjBRPkJG_iu-6" value="" style="html=1;points=[];perimeter=orthogonalPerimeter;fillColor=#ffe6cc;strokeColor=#d79b00;" parent="RDpyPI0KjrjBRPkJG_iu-4" vertex="1">
          <mxGeometry x="50" y="110" width="10" height="40" as="geometry" />
        </mxCell>
        <mxCell id="RDpyPI0KjrjBRPkJG_iu-7" value="1.1: validSearch()" style="edgeStyle=orthogonalEdgeStyle;html=1;align=left;spacingLeft=2;endArrow=block;rounded=0;entryX=1;entryY=0;" parent="RDpyPI0KjrjBRPkJG_iu-4" target="RDpyPI0KjrjBRPkJG_iu-6" edge="1">
          <mxGeometry relative="1" as="geometry">
            <mxPoint x="55" y="100" as="sourcePoint" />
            <Array as="points">
              <mxPoint x="80" y="100" />
              <mxPoint x="80" y="110" />
            </Array>
          </mxGeometry>
        </mxCell>
        <mxCell id="RDpyPI0KjrjBRPkJG_iu-8" value="" style="html=1;points=[];perimeter=orthogonalPerimeter;fillColor=#ffe6cc;strokeColor=#d79b00;" parent="RDpyPI0KjrjBRPkJG_iu-4" vertex="1">
          <mxGeometry x="50" y="380" width="10" height="40" as="geometry" />
        </mxCell>
        <mxCell id="RDpyPI0KjrjBRPkJG_iu-9" value="1.3: displayError()" style="edgeStyle=orthogonalEdgeStyle;html=1;align=left;spacingLeft=2;endArrow=block;rounded=0;entryX=1;entryY=0;" parent="RDpyPI0KjrjBRPkJG_iu-4" source="RDpyPI0KjrjBRPkJG_iu-5" target="RDpyPI0KjrjBRPkJG_iu-8" edge="1">
          <mxGeometry relative="1" as="geometry">
            <mxPoint x="50" y="320" as="sourcePoint" />
            <Array as="points">
              <mxPoint x="80" y="370" />
              <mxPoint x="80" y="380" />
            </Array>
          </mxGeometry>
        </mxCell>
        <mxCell id="RDpyPI0KjrjBRPkJG_iu-10" value="1: itemSearch(itemName)" style="html=1;verticalAlign=bottom;endArrow=block;entryX=0;entryY=0;rounded=0;" parent="1" source="RDpyPI0KjrjBRPkJG_iu-3" target="RDpyPI0KjrjBRPkJG_iu-5" edge="1">
          <mxGeometry relative="1" as="geometry">
            <mxPoint x="245" y="170" as="sourcePoint" />
          </mxGeometry>
        </mxCell>
        <mxCell id="RDpyPI0KjrjBRPkJG_iu-11" value=":SearchResults" style="shape=umlLifeline;perimeter=lifelinePerimeter;whiteSpace=wrap;html=1;container=1;collapsible=0;recursiveResize=0;outlineConnect=0;fillColor=#dae8fc;strokeColor=#6c8ebf;" parent="1" vertex="1">
          <mxGeometry x="490" y="90" width="100" height="520" as="geometry" />
        </mxCell>
        <mxCell id="RDpyPI0KjrjBRPkJG_iu-12" value="" style="html=1;points=[];perimeter=orthogonalPerimeter;fillColor=#dae8fc;strokeColor=#6c8ebf;" parent="RDpyPI0KjrjBRPkJG_iu-11" vertex="1">
          <mxGeometry x="45" y="250" width="10" height="20" as="geometry" />
        </mxCell>
        <mxCell id="RDpyPI0KjrjBRPkJG_iu-13" value=":ItemDatabase" style="shape=umlLifeline;participant=umlEntity;perimeter=lifelinePerimeter;whiteSpace=wrap;html=1;container=1;collapsible=0;recursiveResize=0;verticalAlign=top;spacingTop=36;outlineConnect=0;fillColor=#e1d5e7;strokeColor=#9673a6;" parent="1" vertex="1">
          <mxGeometry x="660" y="90" width="40" height="520" as="geometry" />
        </mxCell>
        <mxCell id="RDpyPI0KjrjBRPkJG_iu-14" value="" style="html=1;points=[];perimeter=orthogonalPerimeter;fillColor=#e1d5e7;strokeColor=#9673a6;" parent="RDpyPI0KjrjBRPkJG_iu-13" vertex="1">
          <mxGeometry x="15" y="180" width="10" height="40" as="geometry" />
        </mxCell>
        <mxCell id="RDpyPI0KjrjBRPkJG_iu-15" value=":ResultList" style="shape=umlLifeline;perimeter=lifelinePerimeter;whiteSpace=wrap;html=1;container=1;collapsible=0;recursiveResize=0;outlineConnect=0;fillColor=#d5e8d4;strokeColor=#82b366;" parent="1" vertex="1">
          <mxGeometry x="740" y="160" width="100" height="220" as="geometry" />
        </mxCell>
        <mxCell id="RDpyPI0KjrjBRPkJG_iu-16" value="" style="shape=umlDestroy;whiteSpace=wrap;html=1;strokeWidth=3;" parent="RDpyPI0KjrjBRPkJG_iu-15" vertex="1">
          <mxGeometry x="35" y="200" width="30" height="30" as="geometry" />
        </mxCell>
        <mxCell id="RDpyPI0KjrjBRPkJG_iu-17" value="" style="html=1;points=[];perimeter=orthogonalPerimeter;fillColor=#d5e8d4;strokeColor=#82b366;" parent="RDpyPI0KjrjBRPkJG_iu-15" vertex="1">
          <mxGeometry x="45" y="115" width="10" height="65" as="geometry" />
        </mxCell>
        <mxCell id="RDpyPI0KjrjBRPkJG_iu-18" value="1.2: SearchItems(itemName)" style="html=1;verticalAlign=bottom;endArrow=block;entryX=0;entryY=0;rounded=0;" parent="1" source="RDpyPI0KjrjBRPkJG_iu-5" target="RDpyPI0KjrjBRPkJG_iu-14" edge="1">
          <mxGeometry relative="1" as="geometry">
            <mxPoint x="610" y="200" as="sourcePoint" />
          </mxGeometry>
        </mxCell>
        <mxCell id="RDpyPI0KjrjBRPkJG_iu-19" value="1.2.1: listResults()" style="html=1;verticalAlign=bottom;endArrow=block;entryX=0;entryY=0;rounded=0;" parent="1" source="RDpyPI0KjrjBRPkJG_iu-14" target="RDpyPI0KjrjBRPkJG_iu-17" edge="1">
          <mxGeometry relative="1" as="geometry">
            <mxPoint x="722" y="285" as="sourcePoint" />
          </mxGeometry>
        </mxCell>
        <mxCell id="RDpyPI0KjrjBRPkJG_iu-20" value="1.2.1.1: displayResults()" style="html=1;verticalAlign=bottom;endArrow=block;entryX=1;entryY=0;rounded=0;" parent="1" source="RDpyPI0KjrjBRPkJG_iu-17" target="RDpyPI0KjrjBRPkJG_iu-12" edge="1">
          <mxGeometry relative="1" as="geometry">
            <mxPoint x="610" y="320" as="sourcePoint" />
            <Array as="points">
              <mxPoint x="610" y="340" />
            </Array>
          </mxGeometry>
        </mxCell>
        <mxCell id="RDpyPI0KjrjBRPkJG_iu-21" value="" style="endArrow=none;dashed=1;html=1;rounded=0;entryX=1;entryY=0.576;entryDx=0;entryDy=0;entryPerimeter=0;exitX=0;exitY=0.573;exitDx=0;exitDy=0;exitPerimeter=0;" parent="1" source="RDpyPI0KjrjBRPkJG_iu-1" target="RDpyPI0KjrjBRPkJG_iu-1" edge="1">
          <mxGeometry width="50" height="50" relative="1" as="geometry">
            <mxPoint x="410" y="380" as="sourcePoint" />
            <mxPoint x="460" y="330" as="targetPoint" />
          </mxGeometry>
        </mxCell>
        <mxCell id="RDpyPI0KjrjBRPkJG_iu-22" value="[itemName=valid]" style="text;html=1;align=center;verticalAlign=middle;resizable=0;points=[];autosize=1;strokeColor=none;fillColor=none;" parent="1" vertex="1">
          <mxGeometry x="200" y="270" width="110" height="20" as="geometry" />
        </mxCell>
        <mxCell id="RDpyPI0KjrjBRPkJG_iu-23" value="[else]" style="text;html=1;align=center;verticalAlign=middle;resizable=0;points=[];autosize=1;strokeColor=none;fillColor=none;" parent="1" vertex="1">
          <mxGeometry x="200" y="430" width="40" height="20" as="geometry" />
        </mxCell>
        <mxCell id="RDpyPI0KjrjBRPkJG_iu-24" style="edgeStyle=none;rounded=0;orthogonalLoop=1;jettySize=auto;html=1;endArrow=open;endFill=0;dashed=1;" parent="1" source="RDpyPI0KjrjBRPkJG_iu-5" target="RDpyPI0KjrjBRPkJG_iu-3" edge="1">
          <mxGeometry relative="1" as="geometry">
            <Array as="points">
              <mxPoint x="230" y="540" />
            </Array>
          </mxGeometry>
        </mxCell>
      </root>
    </mxGraphModel>
  </diagram>
</mxfile>
